# AST/ASF file generated using VICON BodyLanguage
# -----------------------------------------------
:version 1.10
:name VICON
:units
  mass 1.0
  length 0.45
  angle deg
:documentation
   .ast/.asf automatically generated from VICON data using
   VICON BodyBuilder and BodyLanguage model FoxedUp or BRILLIANT.MOD
:root
   order TX TY TZ RX RY RZ
   axis XYZ
   position 0 0 0  
   orientation 0 0 0 
:bonedata
  begin
     id 1 
     name lhipjoint
     direction 0.63403 -0.759788 0.143974 
     length 2.51904 
     axis 0 0 0  XYZ
  end
  begin
     id 2 
     name lfemur
     direction 0.34202 -0.939693 0  
     length 7.42313  
     axis 0 0 20  XYZ
    dof rx ry rz
    limits (-160.0 20.0)
           (-70.0 70.0)
           (-60.0 70.0)
  end
  begin
     id 3 
     name ltibia
     direction 0.34202 -0.939693 0   
     length 8.10141   
     axis 0 0 20   XYZ
    dof rx
    limits (-10.0 170.0)
  end
  begin
     id 4 
     name lfoot
     direction 0.0927455 -0.254816 0.962532   
     length 2.14078   
     axis -90 7.62852e-016 20   XYZ
    dof rx rz
    limits (-45.0 90.0)
           (-70.0 20.0)
  end
  begin
     id 5 
     name ltoes
     direction 1.53556e-011 -4.21949e-011 1   
     length 1.07182   
     axis -90 7.62852e-016 20   XYZ
    dof rx
    limits (-90.0 20.0)
  end
  begin
     id 6 
     name rhipjoint
     direction -0.659892 -0.738223 0.139888   
     length 2.59263  
     axis 0 0 0  XYZ 
  end
  begin
     id 7 
     name rfemur
     direction -0.34202 -0.939693 0   
     length 7.58575   
     axis 0 0 -20   XYZ
    dof rx ry rz
    limits (-160.0 20.0)
           (-70.0 70.0)
           (-70.0 60.0)
  end
  begin
     id 8 
     name rtibia
     direction -0.34202 -0.939693 0   
     length 8.19358   
     axis 0 0 -20   XYZ
    dof rx
    limits (-10.0 170.0)
 end
 begin
     id 9 
     name rfoot
     direction -0.0856543 -0.235333 0.968133   
     length 2.13415  
     axis -90 -7.62852e-016 -20   XYZ
    dof rx rz
    limits (-45.0 90.0)
           (-20.0 70.0)
  end
  begin
     id 10 
     name rtoes
     direction -1.53551e-011 -4.21811e-011 1   
     length 1.07055   
     axis -90 -7.62852e-016 -20   XYZ
    dof rx
    limits (-90.0 20.0)
  end
  begin
     id 11 
     name lowerback
     direction 0.025219 0.998394 -0.0507326   
     length 1.91844   
     axis 0 0 0   XYZ
    dof rx ry rz
    limits (-20.0 45.0)
           (-30.0 30.0)
           (-30.0 30.0)
  end
  begin
     id 12 
     name upperback
     direction 0.0213103 0.99967 -0.0143101   
     length 1.92246   
     axis 0 0 0   XYZ
    dof rx ry rz
    limits (-20.0 45.0)
           (-30.0 30.0)
           (-30.0 30.0)
  end
  begin
     id 13 
     name thorax
     direction 0.00920974 0.99991 0.00971518   
     length 1.92239   
     axis 0 0 0   XYZ
    dof rx ry rz
    limits (-20.0 45.0)
           (-30.0 30.0)
           (-30.0 30.0)
  end
  begin
     id 14 
     name lowerneck
     direction 0.0598257 0.997249 0.0437612   
     length 3.13679   
     axis 0 0 0   XYZ
    dof rx ry rz
    limits (-20.0 45.0)
           (-30.0 30.0)
           (-30.0 30.0)
  end
  begin
     id 15 
     name upperneck
     direction -0.035342 0.999338 0.00863891   
     length 3.16283   
     axis 0 0 0   XYZ
    dof rx ry rz
    limits (-20.0 45.0)
           (-30.0 30.0)
           (-30.0 30.0)
  end
  begin
     id 16
     name head
     direction 0.37144 0.811566 0.450991  
     length 1.2838  
     axis 0 0 0   XYZ
    dof rx ry rz
    limits (-20.0 45.0)
           (-30.0 30.0)
           (-30.0 30.0)
  end
  begin
     id 17 
     name lclavicle
     direction 0.961094 0.274654 -0.0293862  
     length 3.63466  
     axis 0 0 0   XYZ
    dof ry rz
    limits (-20.0 10.0)
           (0.0 20.0)
  end
  begin
     id 18 
     name lhumerus
     direction 1 -4.48963e-011 1.10303e-027   
     length 5.12842   
     axis 180 -30 -90   XYZ
    dof rx ry rz
    limits (-60.0 90.0)
           (-90.0 90.0)
           (-90.0 90.0)
  end
  begin
     id 19
     name lradius
     direction 1 -4.48968e-011 4.13199e-027   
     length 3.47396   
     axis 180 -30 -90   XYZ
    dof rx
    limits (-10.0 170.0)
  end
  begin
     id 20
     name lwrist
     direction 1 -4.48948e-011 9.12708e-027   
     length 1.73698   
     axis -6.84618e-015 90 90   XYZ
    dof ry
    limits (-180.0 0.0)
 end
  begin
     id 21 
     name lhand
     direction 1 -4.49057e-011 1.82749e-026   
     length 0.728607   
     axis -1.16502e-014 90 90   XYZ
    dof rx rz
    limits (-90.0 90.0)
           (-45.0 45.0)
  end
  begin
     id 22 
     name lfingers
     direction 1 -4.48912e-011 3.64949e-026   
     length 0.587422   
     axis -2.33008e-014 90 90   XYZ
    dof rx
    limits (0.0 90.0)
  end
  begin
     id 23
     name lthumb
     direction 0.707107 -6.34995e-011 0.707107   
     length 0.843424   
     axis -90 45 5.69224e-014   XYZ
    dof rx rz
    limits (-45.0 45.0)
           (-45.0 45.0)
  end
  begin
     id 24 
     name rclavicle
     direction -0.90514 0.421881 -0.0523369   
     length 3.57139  
     axis 0 0 0   XYZ 
    dof ry rz
    limits (-10.0 20.0)
           (-20.0 0.0)
  end
  begin
     id 25 
     name rhumerus
     direction -1 -4.48954e-011 -1.76662e-027  
     length 5.48477   
     axis 180 30 90   XYZ
    dof rx ry rz
    limits (-90.0 60.0)
           (-90.0 90.0)
           (-90.0 90.0)
  end
  begin
     id 26 
     name rradius
     direction -1 -4.48982e-011 1.26841e-027   
     length 3.47856   
     axis 180 30 90   XYZ
    dof rx
    limits (-10.0 170.0)
  end
  begin
     id 27 
     name rwrist
     direction -1 -4.49037e-011 9.13554e-027   
     length 1.73928   
     axis -6.84618e-015 -90 -90   XYZ
    dof ry
    limits (-180.0 0.0)
  end
  begin
     id 28
     name rhand
     direction -1 -4.48871e-011 1.82397e-026   
     length 0.709974   
     axis -1.16502e-014 -90 -90   XYZ
    dof rx rz
    limits (-90.0 90.0)
           (-45.0 45.0)
  end
  begin
     id 29
     name rfingers
     direction -1 -4.48994e-011 3.65258e-026   
     length 0.572399   
     axis -2.33008e-014 -90 -90   XYZ
    dof rx
    limits (0.0 90.0)
  end
  begin
     id 30
     name rthumb
     direction -0.707107 -6.34861e-011 0.707107   
     length 0.821855   
     axis -90 -45 -5.69224e-014   XYZ
    dof rx rz
    limits (-45.0 45.0)
           (-45.0 45.0)
  end
:hierarchy
  begin
    root lhipjoint rhipjoint lowerback
    lhipjoint lfemur
    lfemur ltibia
    ltibia lfoot
    lfoot ltoes
    rhipjoint rfemur
    rfemur rtibia
    rtibia rfoot
    rfoot rtoes
    lowerback upperback
    upperback thorax
    thorax lowerneck lclavicle rclavicle
    lowerneck upperneck
    upperneck head
    lclavicle lhumerus
    lhumerus lradius
    lradius lwrist
    lwrist lhand lthumb
    lhand lfingers
    rclavicle rhumerus
    rhumerus rradius
    rradius rwrist
    rwrist rhand rthumb
    rhand rfingers
  end

#!OML:ASF F:\VICON\USERDATA\INSTALL\Justin1\Justin1.ASF
:FULLY-SPECIFIED
:DEGREES
1711
root -0.395778 18.2186 -3.86859 4.03188 -1.92348 -2.15711
lowerback 3.28595 -1.02551 1.93592
upperback -0.531107 -1.21579 3.1293
thorax -2.36152 -0.612321 2.19666
lowerneck -12.9883 -3.58802 -5.11389
upperneck 17.4738 -3.24225 -3.14931
head 7.57591 -2.18597 -0.528358
rclavicle 5.56597e-015 1.66979e-014
rhumerus -36.2275 -10.3472 -79.2099
rradius 29.7721
rwrist -0.235998
rhand -24.251 14.869
rfingers 7.12502
rthumb 2.23496 -15.099
lclavicle 5.56597e-015 1.66979e-014
lhumerus -35.1239 9.13739 87.3478
lradius 32.9816
lwrist -16.1518
lhand -8.09385 26.2008
lfingers 7.12502
lthumb 17.8185 55.4045
rfemur -16.3368 7.33404 27.4382
rtibia 33.4063
rfoot -17.3987 -14.2085
rtoes 29.339
lfemur -15.2646 -9.12076 -17.4456
ltibia 29.016
lfoot -15.742 9.5645
ltoes 8.01054
1712
root -0.385791 18.219 -3.8693 4.03417 -1.94487 -2.08731
lowerback 3.22475 -0.985175 1.90247
upperback -0.51926 -1.16662 3.11351
thorax -2.3157 -0.587397 2.19497
lowerneck -12.9533 -3.64041 -5.14695
upperneck 17.245 -3.31486 -3.15821
head 7.4956 -2.21806 -0.529434
rclavicle 6.90777e-015 -2.22639e-014
rhumerus -36.2652 -9.53857 -79.7583
rradius 30.3757
rwrist -0.464502
rhand -24.5345 15.2444
rfingers 7.12502
rthumb 1.96114 -14.7264
lclavicle 6.90777e-015 -2.22639e-014
lhumerus -35.2486 8.86707 87.5787
lradius 33.2407
lwrist -16.3959
lhand -8.08594 26.2434
lfingers 7.12502
lthumb 17.8261 55.4463
rfemur -16.3545 7.31691 27.3227
rtibia 33.4239
rfoot -17.4335 -14.1359
rtoes 29.6329
lfemur -15.2723 -9.14291 -17.5634
ltibia 29.0532
lfoot -15.7511 9.61399
ltoes 8.09933
1713
root -0.377537 18.2178 -3.86999 4.01494 -1.98477 -2.04899
lowerback 3.15369 -0.921625 1.90846
upperback -0.464049 -1.08713 3.08292
thorax -2.22148 -0.547901 2.15358
lowerneck -13.0167 -3.69628 -5.02151
upperneck 17.0263 -3.39416 -3.29372
head 7.4304 -2.25567 -0.600125
rclavicle 1.55549e-014 2.38542e-015
rhumerus -36.203 -8.79718 -80.3191
rradius 30.8348
rwrist -0.558839
rhand -24.7534 15.8374
rfingers 7.12502
rthumb 1.74977 -14.1352
lclavicle 1.55549e-014 2.38542e-015
lhumerus -35.2515 8.48532 87.8419
lradius 33.4697
lwrist -16.5217
lhand -8.55927 25.9528
lfingers 7.12502
lthumb 17.3707 55.1966
rfemur -16.3529 7.38078 27.2523
rtibia 33.4614
rfoot -17.5205 -14.0815
rtoes 30.0721
lfemur -15.2661 -9.0302 -17.6535
ltibia 29.0626
lfoot -15.7013 9.63399
ltoes 7.55413
1714
root -0.368586 18.2169 -3.87094 3.9682 -2.05991 -2.12877
lowerback 3.21565 -0.886414 2.02045
upperback -0.472318 -1.03264 3.09325
thorax -2.26793 -0.522097 2.10007
lowerneck -13.054 -3.68698 -4.91733
upperneck 16.8811 -3.38544 -3.3992
head 7.38509 -2.25155 -0.648912
rclavicle 2.98177e-015 -4.77083e-015
rhumerus -36.1861 -7.96252 -80.8586
rradius 31.3354
rwrist -0.49245
rhand -24.9346 15.9944
rfingers 7.12502
rthumb 1.57476 -13.9795
lclavicle 2.98177e-015 -4.77083e-015
lhumerus -35.3638 8.071 88.0834
lradius 33.6815
lwrist -16.5045
lhand -9.6895 25.2053
lfingers 7.12502
lthumb 16.2826 54.5416
rfemur -16.2987 7.45551 27.3097
rtibia 33.4795
rfoot -17.4906 -14.1041
rtoes 29.816
lfemur -15.2367 -8.92776 -17.6146
ltibia 29.1028
lfoot -15.7489 9.62254
ltoes 7.5749
1715
root -0.359918 18.2164 -3.87028 3.91063 -2.12777 -2.09803
lowerback 3.25005 -0.870432 1.96384
upperback -0.476641 -1.01174 3.10841
thorax -2.29089 -0.5109 2.14713
lowerneck -13.1664 -3.64587 -4.8965
upperneck 16.8838 -3.31928 -3.43238
head 7.4044 -2.22252 -0.658664
rclavicle 1.09332e-014 7.95139e-016
rhumerus -36.2032 -7.26382 -81.2668
rradius 32.0406
rwrist -0.0493883
rhand -24.9048 15.7555
rfingers 7.12502
rthumb 1.60352 -14.2182
lclavicle 1.09332e-014 7.95139e-016
lhumerus -35.475 7.79294 88.3136
lradius 33.9028
lwrist -16.4665
lhand -10.1613 25.0478
lfingers 7.12502
lthumb 15.8283 54.4207
rfemur -16.2433 7.47796 27.2453
rtibia 33.4978
rfoot -17.4447 -14.1411
rtoes 29.56
lfemur -15.196 -8.80908 -17.7018
ltibia 29.1459
lfoot -15.779 9.58582
ltoes 7.49842
1716
root -0.35178 18.2145 -3.87274 3.89341 -2.19723 -2.17959
lowerback 3.23986 -0.855971 2.02002
upperback -0.487922 -0.989693 3.13105
thorax -2.29788 -0.500506 2.13784
lowerneck -13.1661 -3.61503 -4.9515
upperneck 16.8262 -3.2916 -3.30274
head 7.38835 -2.19944 -0.603743
rclavicle 6.36111e-015 -1.19271e-014
rhumerus -36.2517 -6.63163 -81.7161
rradius 32.6774
rwrist 0.302967
rhand -24.9138 15.9264
rfingers 7.12502
rthumb 1.59485 -14.0473
lclavicle 6.36111e-015 -1.19271e-014
lhumerus -35.6095 7.54377 88.4752
lradius 34.2677
lwrist -16.4798
lhand -9.38003 25.7729
lfingers 7.12502
lthumb 16.5806 55.0846
rfemur -16.2368 7.51489 27.3017
rtibia 33.501
rfoot -17.4684 -14.0658
rtoes 29.9553
lfemur -15.2363 -8.74487 -17.6485
ltibia 29.2219
lfoot -15.783 9.58594
ltoes 7.6141
1717
root -0.342496 18.2135 -3.87642 3.83664 -2.19692 -2.14829
lowerback 3.26785 -0.861872 1.98824
upperback -0.492541 -0.997588 3.12849
thorax -2.31768 -0.504076 2.15404
lowerneck -13.0141 -3.57964 -5.04904
upperneck 16.5675 -3.27652 -3.11471
head 7.28155 -2.17422 -0.518282
rclavicle -1.78906e-015 -2.70347e-014
rhumerus -36.2537 -6.01254 -82.1469
rradius 33.1802
rwrist 0.518057
rhand -24.881 16.1896
rfingers 7.12502
rthumb 1.62647 -13.784
lclavicle -1.78906e-015 -2.70347e-014
lhumerus -35.7311 7.30829 88.6659
lradius 34.6103
lwrist -16.5796
lhand -8.26453 26.694
lfingers 7.12502
lthumb 17.6543 55.9125
rfemur -16.2133 7.51152 27.2423
rtibia 33.5415
rfoot -17.556 -13.9852
rtoes 30.4044
lfemur -15.2183 -8.78728 -17.7248
ltibia 29.2687
lfoot -15.8031 9.60857
ltoes 7.99212
1718
root -0.33448 18.2116 -3.87612 3.79907 -2.23177 -2.2263
lowerback 3.22131 -0.840815 2.06431
upperback -0.505383 -0.967091 3.16339
thorax -2.30616 -0.489625 2.14513
lowerneck -12.8878 -3.57542 -5.09228
upperneck 16.423 -3.28546 -3.05929
head 7.21396 -2.17213 -0.489603
rclavicle -6.55989e-015 5.40694e-014
rhumerus -36.2687 -5.55167 -82.4572
rradius 33.6678
rwrist 0.889751
rhand -24.4251 16.2288
rfingers 7.12502
rthumb 2.06681 -13.7409
lclavicle -6.55989e-015 5.40694e-014
lhumerus -36.017 7.07456 88.8652
lradius 35.1188
lwrist -16.6211
lhand -9.48183 25.7337
lfingers 7.12502
lthumb 16.4826 55.0535
rfemur -16.1915 7.54915 27.3017
rtibia 33.5993
rfoot -17.5977 -13.993
rtoes 30.4088
lfemur -15.1713 -8.78123 -17.6867
ltibia 29.3029
lfoot -15.8412 9.69108
ltoes 7.75352
1719
root -0.32579 18.2075 -3.87295 3.80018 -2.34754 -2.23399
lowerback 3.09682 -0.785644 2.0909
upperback -0.496885 -0.897862 3.17387
thorax -2.22921 -0.455234 2.1351
lowerneck -13.0065 -3.60064 -5.09414
upperneck 16.4247 -3.30602 -3.08647
head 7.23519 -2.18527 -0.502668
rclavicle -5.41688e-015 3.18055e-015
rhumerus -36.1267 -5.12311 -82.736
rradius 34.1351
rwrist 1.34989
rhand -24.241 16.1104
rfingers 7.12502
rthumb 2.24465 -13.8575
lclavicle -5.41688e-015 3.18055e-015
lhumerus -36.1874 6.8759 89.0695
lradius 35.5031
lwrist -16.7347
lhand -9.79077 25.163
lfingers 7.12502
lthumb 16.1851 54.5073
rfemur -16.231 7.61952 27.2721
rtibia 33.6759
rfoot -17.6 -14.0085
rtoes 30.1609
lfemur -15.1348 -8.76797 -17.7367
ltibia 29.3113
lfoot -15.8105 9.87265
ltoes 7.36494
1720
root -0.315844 18.2064 -3.87409 3.75255 -2.37532 -2.09598
lowerback 3.09804 -0.777888 1.97247
upperback -0.514868 -0.891983 3.14672
thorax -2.24706 -0.450988 2.17347
lowerneck -13.0488 -3.59377 -5.10811
upperneck 16.3459 -3.29726 -3.064
head 7.21739 -2.17836 -0.49196
rclavicle -1.82882e-014 1.19271e-014
rhumerus -36.0932 -4.50028 -83.1088
rradius 34.734
rwrist 1.65833
rhand -24.5563 16.0191
rfingers 7.12502
rthumb 1.94005 -13.9519
lclavicle -1.82882e-014 1.19271e-014
lhumerus -36.292 6.63621 89.2783
lradius 35.8122
lwrist -16.6855
lhand -10.548 24.6291
lfingers 7.12502
lthumb 15.4559 54.0312
rfemur -16.2428 7.54642 27.087
rtibia 33.7575
rfoot -17.587 -13.9476
rtoes 29.908
lfemur -15.08 -8.85159 -17.9442
ltibia 29.312
lfoot -15.8184 9.9753
ltoes 7.20416
1721
root -0.307649 18.206 -3.87629 3.65217 -2.32866 -2.03481
lowerback 3.15777 -0.767284 1.90921
upperback -0.519259 -0.878025 3.13208
thorax -2.2847 -0.443319 2.19426
lowerneck -13.013 -3.58166 -5.10253
upperneck 16.2884 -3.29172 -3.03327
head 7.19253 -2.17103 -0.480758
rclavicle 1.13307e-014 -2.46493e-014
rhumerus -36.1397 -3.90071 -83.4742
rradius 35.3596
rwrist 1.77164
rhand -24.7267 16.364
rfingers 7.12502
rthumb 1.77553 -13.6084
lclavicle 1.13307e-014 -2.46493e-014
lhumerus -36.3774 6.29888 89.5368
lradius 36.2246
lwrist -16.5084
lhand -10.9197 24.4635
lfingers 7.12502
lthumb 15.0978 53.8928
rfemur -16.1775 7.43042 26.9982
rtibia 33.8259
rfoot -17.5963 -13.8731
rtoes 29.6223
lfemur -15.0039 -8.86906 -18.0542
ltibia 29.3248
lfoot -15.8844 9.90134
ltoes 7.29353
1722
root -0.302133 18.2062 -3.8754 3.62539 -2.3898 -2.00862
lowerback 3.10494 -0.706662 1.84758
upperback -0.510168 -0.802182 3.12584
thorax -2.24666 -0.404676 2.21756
lowerneck -13.0316 -3.56469 -5.09501
upperneck 16.2166 -3.27916 -2.98701
head 7.17261 -2.15877 -0.46501
rclavicle 5.36719e-015 2.38542e-015
rhumerus -36.0533 -3.40922 -83.8071
rradius 35.8517
rwrist 1.91288
rhand -24.7966 16.5055
rfingers 7.12502
rthumb 1.70802 -13.4674
lclavicle 5.36719e-015 2.38542e-015
lhumerus -36.4754 5.86651 89.837
lradius 36.679
lwrist -16.336
lhand -10.663 24.6799
lfingers 7.12502
lthumb 15.3451 54.0905
rfemur -16.167 7.41273 26.9429
rtibia 33.8701
rfoot -17.611 -13.821
rtoes 29.5478
lfemur -15.024 -8.77271 -18.1143
ltibia 29.3927
lfoot -15.8879 9.89803
ltoes 7.22217
